<?xml version="1.0" encoding="utf-8"?>
<!-- Generator: Adobe Illustrator 18.1.1, SVG Export Plug-In . SVG Version: 6.00 Build 0)  -->
<svg version="1.1" id="Layer_1" xmlns="http://www.w3.org/2000/svg" xmlns:xlink="http://www.w3.org/1999/xlink" x="0px" y="0px"
	 viewBox="420 180 440 440" enable-background="new 420 180 440 440" xml:space="preserve">
<path fill="#2A2A2A" d="M638.8,607c-115.2,0-208-92.8-208-208s92.8-208,208-208s208,92.8,208,208S752.4,607,638.8,607z M638.8,223
	c-97.6,0-176,78.4-176,176s78.4,176,176,176s176-78.4,176-176S734.8,223,638.8,223z"/>
<g>
	<circle fill="#2A2A2A" cx="702.8" cy="343" r="30.4"/>
	<path fill="#2A2A2A" d="M702.8,381.4c-20.8,0-38.4-17.6-38.4-38.4s17.6-38.4,38.4-38.4s38.4,17.6,38.4,38.4
		S723.6,381.4,702.8,381.4z M702.8,319c-12.8,0-24,11.2-24,24s11.2,24,24,24s24-11.2,24-24S715.6,319,702.8,319z"/>
</g>
<g>
	<circle fill="#2A2A2A" cx="571.6" cy="343" r="30.4"/>
	<path fill="#2A2A2A" d="M571.6,381.4c-20.8,0-38.4-17.6-38.4-38.4s17.6-38.4,38.4-38.4c20.8,0,38.4,17.6,38.4,38.4
		S592.4,381.4,571.6,381.4z M571.6,319c-12.8,0-24,11.2-24,24s11.2,24,24,24c12.8,0,24-11.2,24-24S584.4,319,571.6,319z"/>
</g>
<path fill="#2A2A2A" d="M736.4,522.2H722c0-46.4-38.4-84.8-84.8-84.8s-84.8,38.4-84.8,84.8H538c0-54.4,44.8-99.2,99.2-99.2
	S736.4,467.8,736.4,522.2z"/>
<g>
	<path fill="#2A2A2A" d="M781.2,435.8c0,12.8-11.2,24-24,24s-24-11.2-24-24s22.4-60.8,22.4-60.8S781.2,423,781.2,435.8z"/>
	<path fill="#2A2A2A" d="M757.2,459.8c-12.8,0-24-11.2-24-24s20.8-59.2,22.4-62.4l1.6-1.6l1.6,1.6c1.6,1.6,25.6,49.6,25.6,62.4
		C781.2,450.2,770,459.8,757.2,459.8z M755.6,376.6c-3.2,9.6-20.8,48-20.8,59.2c0,12.8,9.6,22.4,22.4,22.4s22.4-9.6,22.4-22.4
		C779.6,424.6,760.4,386.2,755.6,376.6z"/>
</g>
</svg>
