<?xml version="1.0" encoding="utf-8"?>
<!-- Generator: Adobe Illustrator 18.1.1, SVG Export Plug-In . SVG Version: 6.00 Build 0)  -->
<svg version="1.1" id="Layer_1" xmlns="http://www.w3.org/2000/svg" xmlns:xlink="http://www.w3.org/1999/xlink" x="0px" y="0px"
	 viewBox="420 180 440 440" enable-background="new 420 180 440 440" xml:space="preserve">
<g>
	<path fill="#2A2A2A" d="M639.8,607.2c-115.2,0-208-92.8-208-208s92.8-208,208-208s208,92.8,208,208S753.4,607.2,639.8,607.2z
		 M639.8,223.2c-97.6,0-176,78.4-176,176s78.4,176,176,176s176-78.4,176-176S735.8,223.2,639.8,223.2z"/>
	<g>
		<circle fill="#2A2A2A" cx="703.8" cy="343.2" r="30.4"/>
		<path fill="#2A2A2A" d="M703.8,383.2c-20.8,0-38.4-17.6-38.4-38.4s17.6-38.4,38.4-38.4s38.4,17.6,38.4,38.4
			S724.6,383.2,703.8,383.2z M703.8,320.8c-12.8,0-22.4,9.6-22.4,22.4s9.6,22.4,22.4,22.4s22.4-9.6,22.4-22.4
			S716.6,320.8,703.8,320.8z"/>
	</g>
	<g>
		<circle fill="#2A2A2A" cx="572.6" cy="343.2" r="30.4"/>
		<path fill="#2A2A2A" d="M572.6,383.2c-20.8,0-38.4-17.6-38.4-38.4s17.6-38.4,38.4-38.4c20.8,0,38.4,17.6,38.4,38.4
			S593.4,383.2,572.6,383.2z M572.6,320.8c-12.8,0-22.4,9.6-22.4,22.4s9.6,22.4,22.4,22.4c12.8,0,22.4-9.6,22.4-22.4
			S585.4,320.8,572.6,320.8z"/>
	</g>
	<path fill="#2A2A2A" d="M639.8,530.4c-54.4,0-99.2-44.8-99.2-99.2v-8H739v8C739,485.6,694.2,530.4,639.8,530.4z M556.6,439.2
		c4.8,43.2,40,75.2,83.2,75.2s80-33.6,83.2-75.2H556.6z"/>
</g>
</svg>
